# xmcd
#
# Track frame offsets:
#	150
#	13337
#	23626
#	36304
#	49224
#	60786
#	73179
#	85256
#
# Disc length: 1316 seconds
# Revision: 0
# Processed by: cddbd v1.5.2PL0 Copyright (c) Steve Scherf et al.
# Submitted via: dBpowerAMP V12.0
#
DISCID=64052208
DTITLE=The Osborne Brothers - Nashville
DYEAR=2014
DGENRE=Bluegrass
TTITLE0=Gonna Be Raining When I Die
TTITLE1=Muddy Waters
TTITLE2=The Oak Tree
TTITLE3=My Baby's Gone
TTITLE4=Going Back to the Mountains
TTITLE5=When I Stop Dreaming
TTITLE6=The Hard Times
TTITLE7=Half a Mind
EXTD=
EXTT0=
EXTT1=
EXTT2=
EXTT3=
EXTT4=
EXTT5=
EXTT6=
EXTT7=
PLAYORDER=
